# xmcd
#
# Track frame offsets:
#	150
#	22864
#	47580
#	62865
#	86442
#	105252
#	124274
#	141625
#	161425
#	181139
#	197567
#
# Disc length: 2864 seconds
#
# Revision: 1
# Processed by: cddbd v1.5.2PL0 Copyright (c) Steve Scherf et al.
# Submitted via: audiograbber 1.83.01
#
DISCID=8a0b2e0b
DTITLE=The Washington Projects - Space Time Continium [Disc 1]
DYEAR=2012
DGENRE=Christian Hip-Hop
TTITLE0=Work (Intergalactic Public Transit Mix)
TTITLE1=Time (Spiral Galaxy Mix)
TTITLE2=Diamonds (Get Out Of My Face Cubic Zirconia! Mix)
TTITLE3=Move (Divine Sines Mix)
TTITLE4=Crazy (Space Junk Mix)
TTITLE5=She Can't Love You (3AM Blacklight Mix)
TTITLE6=Justus (4th Spatial Dimension Mix)
TTITLE7=Light Up The Dark (Dark Matter Mix)
TTITLE8=My Dream (Wicker Park Mix) Feat. Jenny Leckie
TTITLE9=Zephyr Wings (Chicago Discothaque Mix)
TTITLE10=Yesterday (Northern Lights Mix)
EXTD=
EXTT0=
EXTT1=
EXTT2=
EXTT3=
EXTT4=
EXTT5=
EXTT6=
EXTT7=
EXTT8=
EXTT9=
EXTT10=
PLAYORDER=
